<svg xmlns="http://www.w3.org/2000/svg" version="1.1" xmlns:xlink="http://www.w3.org/1999/xlink" width="200" height="200"><svg xmlns="http://www.w3.org/2000/svg" version="1.1" xmlns:xlink="http://www.w3.org/1999/xlink" viewBox="0 0 200 200"><rect width="200" height="200" fill="url('#gradient')"></rect><defs><linearGradient id="SvgjsLinearGradient1001" gradientTransform="rotate(181 0.5 0.5)"><stop offset="0%" stop-color="#ffde00" data-darkreader-inline-stopcolor="" style="--darkreader-inline-stopcolor: var(--darkreader-background-ffde00, #998500);"></stop><stop offset="100%" stop-color="#71a841" data-darkreader-inline-stopcolor="" style="--darkreader-inline-stopcolor: var(--darkreader-background-71a841, #5a8634);"></stop></linearGradient></defs><g><g fill="#0a6d83" transform="matrix(6.307528517110266,0,0,6.307528517110266,12.229723363756676,144.85078374695868)" stroke="#cab7b0" stroke-width="0.95" data-darkreader-inline-fill="" data-darkreader-inline-stroke="" style="--darkreader-inline-fill: var(--darkreader-background-0a6d83, #085769); --darkreader-inline-stroke: var(--darkreader-text-cab7b0, #beb9b0);"><path d="M12.95-14.22L12.95 0L9.54 0L4.50-8.85L4.50 0L1.07 0L1.07-14.22L4.50-14.22L9.53-5.37L9.53-14.22L12.95-14.22ZM26.76-7.60L26.76-1.76Q25.97-0.88 24.44-0.34Q22.92 0.20 21.10 0.20L21.10 0.20Q18.31 0.20 16.64-1.51Q14.97-3.22 14.85-6.27L14.85-6.27L14.84-7.50Q14.84-9.60 15.59-11.17Q16.33-12.73 17.71-13.58Q19.09-14.42 20.91-14.42L20.91-14.42Q23.56-14.42 25.03-13.21Q26.50-11.99 26.75-9.58L26.75-9.58L23.45-9.58Q23.27-10.77 22.69-11.28Q22.10-11.79 21.03-11.79L21.03-11.79Q19.74-11.79 19.03-10.69Q18.33-9.60 18.32-7.57L18.32-7.57L18.32-6.71Q18.32-4.58 19.05-3.51Q19.78-2.44 21.34-2.44L21.34-2.44Q22.68-2.44 23.33-3.04L23.33-3.04L23.33-5.24L20.95-5.24L20.95-7.60L26.76-7.60Z"></path></g></g></svg><style>@media (prefers-color-scheme: light) { :root { filter: contrast(1) brightness(1); } }
@media (prefers-color-scheme: dark) { :root { filter: none; } }
</style></svg>